<?xml version="1.0" encoding="utf-8"?>
<!-- Generator: Adobe Illustrator 25.2.1, SVG Export Plug-In . SVG Version: 6.00 Build 0)  -->
<svg version="1.1" id="Layer_1" xmlns="http://www.w3.org/2000/svg" xmlns:xlink="http://www.w3.org/1999/xlink" x="0px" y="0px"
	 viewBox="0 0 245.74 145.57" style="enable-background:new 0 0 245.74 145.57;" xml:space="preserve">
<style type="text/css">
	.st0{fill:none;stroke:#F9BB5F;stroke-width:9.5641;stroke-miterlimit:10;}
	.st1{fill:none;stroke:#F9BB5F;stroke-width:8.7659;stroke-miterlimit:10;}
	.st2{fill:none;stroke:#F9BB5F;stroke-width:9.5641;stroke-linecap:round;stroke-miterlimit:10;}
	.st3{fill:#F9BB5F;}
</style>
<ellipse class="st0" cx="94.09" cy="72.78" rx="75.27" ry="52.88"/>
<ellipse class="st1" cx="66.86" cy="73.16" rx="16.34" ry="40.3"/>
<path class="st2" d="M222.4,26.43c-4.73,21.5-19.17,38.69-37.78,45.33"/>
<rect x="217.74" y="26.56" transform="matrix(-1 -1.224647e-16 1.224647e-16 -1 444.8095 143.5385)" class="st3" width="9.33" height="90.42"/>
<circle class="st3" cx="34.45" cy="71.16" r="6.06"/>
<path class="st3" d="M95.41,31.85c-4.18,0-8.27,0.28-12.22,0.8c8.9,5.24,15.37,21.29,15.37,40.28c0,18.99-6.48,35.04-15.37,40.28
	c3.95,0.52,8.03,0.8,12.22,0.8c34.42,0,62.32-18.4,62.32-41.09C157.74,50.25,129.84,31.85,95.41,31.85z"/>
<path class="st2" d="M222.4,118.12c-4.73-21.5-19.17-38.69-37.78-45.33"/>
</svg>
